<svg width="60" height="42" viewBox="0 0 60 42" fill="none" xmlns="http://www.w3.org/2000/svg">
<g clip-path="url(#clip0_1410_494)">
<path d="M30.2653 24.6119C30.2653 25.2613 29.4904 26.0596 28.8603 26.0596H28.2865C28.2871 22.0852 28.2871 17.6296 28.2865 16.8387C28.2862 16.8153 28.2906 16.7921 28.2994 16.7704C28.3081 16.7486 28.3211 16.7289 28.3375 16.7121C28.3539 16.6954 28.3734 16.6821 28.395 16.673C28.4165 16.6638 28.4397 16.659 28.4631 16.6588H30.0879C30.1854 16.6588 30.2654 16.7407 30.2654 16.8401V24.6119H30.2653ZM27.6177 27.4542C27.6177 27.8653 27.4165 28.5539 26.0692 28.5539C23.458 28.5539 21.8551 26.5082 21.8551 25.041C21.8551 25.041 21.8522 20.297 21.8522 16.8402C21.852 16.8168 21.8563 16.7935 21.8651 16.7718C21.8739 16.75 21.8868 16.7302 21.9033 16.7135C21.9197 16.6967 21.9393 16.6834 21.9609 16.6743C21.9826 16.6652 22.0058 16.6605 22.0292 16.6603H23.6559C23.7536 16.6603 23.8338 16.7417 23.8338 16.8417V24.4642C23.8338 25.7236 24.8305 26.7451 26.0593 26.7451H27.6185L27.6177 27.4542ZM30.2112 15.9752H28.3395C27.9416 15.9752 27.6175 16.3076 27.6175 16.7153V26.0604H26.0581C25.1978 26.0604 24.5005 25.3456 24.5005 24.464V16.7153C24.5005 16.3066 24.1769 15.9749 23.7782 15.9749H21.9057C21.507 15.9749 21.1834 16.3066 21.1828 16.7153C21.1818 20.0941 21.1857 25.0412 21.1857 25.0412C21.186 27.6416 24.0298 29.2383 26.0686 29.2383C27.4362 29.2383 28.2856 28.5532 28.2856 27.4495V26.745H28.86C29.8675 26.745 30.9332 25.6488 30.9332 24.6119V16.7153C30.9342 16.3066 30.6106 15.9749 30.2112 15.9749V15.9752H30.2112ZM19.1495 25.8942C19.1498 25.9177 19.1454 25.9409 19.1366 25.9626C19.1278 25.9843 19.1148 26.0041 19.0984 26.0208C19.082 26.0375 19.0624 26.0507 19.0408 26.0598C19.0192 26.0689 18.9961 26.0737 18.9726 26.0738H17.3459C17.247 26.0738 17.1676 25.9917 17.1681 25.8928V18.2703C17.1681 17.011 16.171 15.9894 14.9426 15.9894H13.3832V15.2802C13.3832 14.87 13.5843 14.1805 14.9317 14.1805C17.5429 14.1805 19.1463 16.2261 19.1463 17.6933C19.1463 17.6933 19.1492 22.4603 19.1492 25.8941H19.1495V25.8942ZM10.9122 26.0754C10.8133 26.0724 10.7341 25.9927 10.7353 25.8937V18.1234C10.7353 17.4739 11.5102 16.6745 12.1401 16.6745H12.7144C12.7135 22.3659 12.7135 25.2782 12.7144 25.8934C12.7149 25.9409 12.6965 25.9867 12.6632 26.0206C12.63 26.0546 12.5847 26.0741 12.5372 26.0747H10.9125L10.9122 26.0754ZM19.8139 17.6934C19.8143 15.0928 16.9704 13.4961 14.9318 13.4961C13.5639 13.4961 12.7144 14.1811 12.7144 15.2848V15.9894H12.1404C11.1325 15.9894 10.0668 17.0856 10.0668 18.1226V26.019C10.0668 26.4277 10.3904 26.7595 10.7889 26.7595H12.6602C12.6718 26.7595 12.6818 26.7563 12.6934 26.7563C13.0759 26.7379 13.3822 26.4158 13.3822 26.019V16.674H14.9419C15.8018 16.674 16.4995 17.3888 16.4995 18.2704V26.0191C16.4995 26.4278 16.8231 26.7596 17.2216 26.7596H19.0944C19.4931 26.7596 19.8165 26.4287 19.8165 26.0191C19.8179 22.5774 19.8142 17.6932 19.8142 17.6932L19.8139 17.6934Z" fill="white"/>
</g>
<path fill-rule="evenodd" clip-rule="evenodd" d="M42.3845 25.632L42.3807 25.6371L42.3771 25.6423C42.1722 25.9324 41.7132 26.0177 41.3542 25.7642C41.0669 25.5612 40.9805 25.1091 41.2252 24.7517C41.5903 24.2863 41.8554 23.7423 42.0295 23.2105C42.2108 22.6568 42.2951 22.0277 42.2918 21.4106C42.2886 20.7935 42.1976 20.1653 42.0104 19.6136C41.8306 19.0837 41.5597 18.5425 41.1897 18.0811C40.9412 17.7263 41.0228 17.2732 41.3079 17.0673C41.6642 16.81 42.124 16.8903 42.332 17.1782L42.3357 17.1834L42.3396 17.1885C42.8001 17.7957 43.1778 18.4704 43.4035 19.1323C43.6411 19.911 43.7925 20.6643 43.7964 21.4026C43.8005 22.1795 43.7263 22.9149 43.4412 23.6388C43.1307 24.4272 42.83 25.0314 42.3845 25.632ZM45.7142 27.0741L45.7232 27.0613L45.7314 27.0481C46.7521 25.4128 47.3408 23.4395 47.3299 21.3838C47.3189 19.3286 46.7095 17.3621 45.672 15.738C45.4471 15.3814 45.5481 14.9599 45.9271 14.6861C46.1817 14.5022 46.6595 14.5673 46.943 14.9473C48.1145 16.8059 48.8221 19.0526 48.8344 21.3758C48.8472 23.7782 48.1641 25.952 47.0115 27.8242C46.7449 28.1912 46.3367 28.294 45.9847 28.086C45.603 27.8064 45.5333 27.3302 45.7142 27.0741ZM51.6892 12.5043L51.6992 12.5242L51.7109 12.5432C53.2982 15.1311 54.1803 18.1162 54.1975 21.3472C54.2147 24.5768 53.3652 27.5698 51.8069 30.1736C51.568 30.5578 51.1647 30.6661 50.7558 30.4758C50.3836 30.2332 50.2836 29.8313 50.478 29.4253C51.8033 27.0717 52.6274 24.2982 52.6117 21.3556C52.5961 18.4262 51.8301 15.6571 50.3894 13.3033C50.1944 12.9014 50.291 12.5012 50.6587 12.2558C51.1024 12.0439 51.5346 12.1993 51.6892 12.5043ZM56.3892 10.0415L56.396 10.055L56.4037 10.0682C58.3272 13.3932 59.4573 17.1946 59.4793 21.3191C59.5012 25.4393 58.4139 29.2489 56.5295 32.5917C56.2901 32.9715 55.8887 33.0778 55.4817 32.8884C55.1107 32.6466 55.0102 32.2465 55.2022 31.8418C57.0176 28.7435 57.9951 25.1539 57.9748 21.3271C57.9543 17.4905 56.8525 13.9147 55.0925 10.8469C54.872 10.3991 55.0274 9.9605 55.3352 9.80454C55.787 9.57562 56.2319 9.73101 56.3892 10.0415Z" fill="white"/>
<defs>
<clipPath id="clip0_1410_494">
<rect width="41" height="41" fill="white" transform="translate(0 0.867233)"/>
</clipPath>
</defs>
</svg>
